<?xml version="1.0" encoding="UTF-8"?>
<svg version="1.1" xmlns="http://www.w3.org/2000/svg" width="183" height="147">
<path d="M0 0 C20.05426934 0.60132742 34.539783 7.15723028 49 21 C51.98301952 24.49314501 54.56468885 28.10821946 57 32 C57.41894531 32.66515625 57.83789062 33.3303125 58.26953125 34.015625 C63.01245023 42.47116595 64.4862808 52.4364777 64 62 C60.61729109 62.74717559 57.40554324 63.15806814 53.9453125 63.28125 C52.52798828 63.33732422 52.52798828 63.33732422 51.08203125 63.39453125 C50.10621094 63.42933594 49.13039063 63.46414062 48.125 63.5 C40.86790435 63.72415125 40.86790435 63.72415125 33.66015625 64.515625 C27.88973289 65.27926694 22.12672248 65.22524546 16.3125 65.25 C15.08982422 65.270625 13.86714844 65.29125 12.60742188 65.3125 C10.84688477 65.32023437 10.84688477 65.32023437 9.05078125 65.328125 C7.98512939 65.3374707 6.91947754 65.34681641 5.8215332 65.35644531 C2.67108305 64.9584478 1.31726068 64.11389428 -1 62 C-1 63.98 -1 65.96 -1 68 C-0.01 67.67 0.98 67.34 2 67 C4.22305572 66.93339159 6.42556098 67.00138999 8.6484375 67.0625 C10.968279 67.07620581 10.968279 67.07620581 13.05541992 66.54052734 C19.93222811 65.2781732 27.02103925 65.18180709 33.99194336 64.79541016 C35.95451256 64.68186906 37.91648698 64.55752851 39.87768555 64.42236328 C42.71834683 64.22737621 45.55915259 64.06713748 48.40234375 63.9140625 C49.2743895 63.84764557 50.14643524 63.78122864 51.04490662 63.71279907 C55.31730427 63.52002872 57.65174956 63.82894091 61.56323242 65.75024414 C64.21164237 68.39145897 64.45313148 70.76994815 64.68115234 74.43286133 C64.68020531 76.64947833 64.64647365 78.86624082 64.5859375 81.08203125 C64.57744781 82.25134689 64.56895813 83.42066254 64.56021118 84.62541199 C64.52665933 88.3553836 64.45136826 92.08318324 64.375 95.8125 C64.34490309 98.34306771 64.31752682 100.87366935 64.29296875 103.40429688 C64.22686175 109.60360401 64.12649213 115.80164684 64 122 C58.2396623 124.41851425 52.58547975 124.47464517 46.43359375 124.703125 C45.32194351 124.74943054 44.21029327 124.79573608 43.06495667 124.84344482 C40.72096921 124.9384498 38.37679538 125.02895009 36.0324707 125.11523438 C32.44602168 125.24968055 28.86090188 125.4052084 25.27539062 125.5625 C22.99484156 125.65231764 20.71424349 125.74090121 18.43359375 125.828125 C17.36265976 125.87592102 16.29172577 125.92371704 15.18833923 125.97296143 C13.68636742 126.0235672 13.68636742 126.0235672 12.15405273 126.07519531 C11.2772435 126.10913391 10.40043427 126.14307251 9.49705505 126.17803955 C5.77358492 125.91255684 2.96912676 124.86887227 0.1875 122.375 C-0.4003125 121.694375 -0.4003125 121.694375 -1 121 C-1.66 122.65 -2.32 124.3 -3 126 C-8.3451234 127.06763814 -12.52492129 126.80746594 -17.8125 125.375 C-18.51608643 125.18824707 -19.21967285 125.00149414 -19.94458008 124.80908203 C-37.21638432 120.01257087 -51.7250367 108.19956868 -60.6484375 92.71484375 C-68.26092728 77.42385994 -69.12658574 60.22271929 -64 44 C-60.0755376 33.88997733 -54.88012569 25.53020892 -47 18 C-46.08154297 17.05253906 -46.08154297 17.05253906 -45.14453125 16.0859375 C-35.60243714 6.84902764 -21.22808295 0.86978089 -8.0078125 0.50390625 C-4.95919455 1.25716399 -3.83356766 2.46967663 -2 5 C-1.609375 8.453125 -1.609375 8.453125 -1.75 12.25 C-1.78609375 13.51328125 -1.8221875 14.7765625 -1.859375 16.078125 C-1.90578125 17.04234375 -1.9521875 18.0065625 -2 19 C-1.93941406 17.79601562 -1.87882812 16.59203125 -1.81640625 15.3515625 C-1.73200268 13.77602923 -1.64735459 12.20050904 -1.5625 10.625 C-1.52318359 9.8309375 -1.48386719 9.036875 -1.44335938 8.21875 C-1.11328125 2.2265625 -1.11328125 2.2265625 0 0 Z M-2 70 C-1 73 -1 73 -1 73 Z " fill="#492E44" transform="translate(93,9)"/>
<path d="M0 0 C1 1 1 1 1.12025452 3.13233948 C1.11803391 4.07165817 1.11581329 5.01097687 1.11352539 5.97875977 C1.11344986 7.03978409 1.11337433 8.10080841 1.11329651 9.19398499 C1.10813522 10.348134 1.10297394 11.50228302 1.09765625 12.69140625 C1.0962413 13.86638168 1.09482635 15.04135712 1.09336853 16.25193787 C1.08774992 20.02215064 1.07519426 23.79230504 1.0625 27.5625 C1.0574874 30.11132727 1.05292408 32.66015547 1.04882812 35.20898438 C1.03777444 41.47267633 1.02101821 47.73633399 1 54 C-4.5319975 56.32462516 -9.58172433 56.27458296 -15.47265625 56.23046875 C-16.47332626 56.23001053 -17.47399628 56.22955231 -18.50498962 56.2290802 C-20.61377147 56.22606785 -22.72255129 56.2182121 -24.83129883 56.20581055 C-28.05493064 56.18754289 -31.27827491 56.18530115 -34.50195312 56.18554688 C-36.55468998 56.18063145 -38.60742489 56.17480302 -40.66015625 56.16796875 C-41.62172134 56.16685593 -42.58328644 56.1657431 -43.57398987 56.16459656 C-44.47520065 56.15821671 -45.37641144 56.15183685 -46.30493164 56.14526367 C-47.09291641 56.14145187 -47.88090118 56.13764008 -48.69276428 56.13371277 C-51.20163782 55.98831435 -53.54946564 55.54520149 -56 55 C-56.79889392 52.20484982 -57.10185134 49.79631795 -57.02734375 46.89453125 C-57.01380859 46.08733643 -57.00027344 45.2801416 -56.98632812 44.44848633 C-56.97021484 43.57861084 -56.95410156 42.70873535 -56.9375 41.8125 C-56.81354988 30.20560394 -57.74498979 18.73838411 -58.81640625 7.1887207 C-59 5 -59 5 -59 3 C-53.90285611 2.01285896 -48.89883527 1.7180799 -43.7265625 1.5 C-42.84398773 1.45939453 -41.96141296 1.41878906 -41.05209351 1.37695312 C-38.24320435 1.24789295 -35.43414154 1.12343636 -32.625 1 C-29.8230084 0.87641112 -27.02109438 0.75168592 -24.21932983 0.62304688 C-22.48087795 0.54323727 -20.74229365 0.46624308 -19.00357056 0.39257812 C-15.15861852 0.21620107 -11.37259979 -0.04610127 -7.55615234 -0.5546875 C-4.52381745 -0.93440594 -2.78737095 -1.11494838 0 0 Z " fill="#8E8383" transform="translate(156,77)"/>
<path d="M0 0 C18.39277328 -1.08369859 31.45083039 5.56369178 45.1640625 17.28515625 C49.48496494 21.42155735 52.83466909 25.94160194 56 31 C56.41894531 31.66515625 56.83789062 32.3303125 57.26953125 33.015625 C62.01245023 41.47116595 63.4862808 51.4364777 63 61 C59.61729109 61.74717559 56.40554324 62.15806814 52.9453125 62.28125 C51.52798828 62.33732422 51.52798828 62.33732422 50.08203125 62.39453125 C49.10621094 62.42933594 48.13039062 62.46414062 47.125 62.5 C39.84081015 62.71945985 39.84081015 62.71945985 32.61328125 63.55859375 C27.07995194 64.23455722 21.6192782 63.83733781 16.0625 63.5625 C14.90169922 63.51029297 13.74089844 63.45808594 12.54492188 63.40429688 C9.69629383 63.27534663 6.84808213 63.14041411 4 63 C4.04424606 62.14008705 4.04424606 62.14008705 4.08938599 61.26280212 C4.39507002 55.27715021 4.68438423 49.2908636 4.96435547 43.30395508 C5.07086346 41.0719814 5.18149463 38.84020039 5.29638672 36.60864258 C5.46114284 33.39446548 5.61088618 30.17987926 5.7578125 26.96484375 C5.81188263 25.97290512 5.86595276 24.98096649 5.92166138 23.95896912 C6.15773843 18.43511518 5.73458411 14.23670859 4 9 C4 7.68 4 6.36 4 5 C3.01 5 2.02 5 1 5 C0.67 3.35 0.34 1.7 0 0 Z " fill="#9C0353" transform="translate(94,10)"/>
<path d="M0 0 C-0.18175781 0.52207031 -0.36351562 1.04414062 -0.55078125 1.58203125 C-1.39255073 4.04690496 -2.19775211 6.52197456 -3 9 C-3.26876953 9.80824219 -3.53753906 10.61648437 -3.81445312 11.44921875 C-6.05925015 18.79685012 -6.36217513 25.54210393 -6.1875 33.1875 C-6.17396484 34.33025391 -6.16042969 35.47300781 -6.14648438 36.65039062 C-6.1115423 39.43410963 -6.06249011 42.21678664 -6 45 C-4.02 44.505 -4.02 44.505 -2 44 C-2.495 46.475 -2.495 46.475 -3 49 C-1.35 49.66 0.3 50.32 2 51 C2.33 53.31 2.66 55.62 3 58 C4.32 58 5.64 58 7 58 C7 58.66 7 59.32 7 60 C7.66 60.33 8.32 60.66 9 61 C9.309375 61.99 9.61875 62.98 9.9375 64 C10.288125 64.99 10.63875 65.98 11 67 C14.13349732 68.04449911 14.98968256 67.93423645 18 67 C18 68.65 18 70.3 18 72 C17.34 72 16.68 72 16 72 C16 72.99 16 73.98 16 75 C17.32 75 18.64 75 20 75 C20 75.66 20 76.32 20 77 C20.66 76.67 21.32 76.34 22 76 C22.99 76 23.98 76 25 76 C25.433125 76.9590625 25.433125 76.9590625 25.875 77.9375 C26.82823451 80.15206079 26.82823451 80.15206079 29 81 C29 81.66 29 82.32 29 83 C34.28 83.66 39.56 84.32 45 85 C44.505 86.485 44.505 86.485 44 88 C29.79420948 89.18381588 17.42473915 80.71266883 6.875 71.9375 C-4.60482509 61.18887396 -11.28692879 46.87093538 -12.15625 31.1796875 C-12.73564407 11.14230912 -12.73564407 11.14230912 -7.45703125 5.2890625 C-6.97621094 4.86367188 -6.49539062 4.43828125 -6 4 C-5.67 3.01 -5.34 2.02 -5 1 C-2 0 -2 0 0 0 Z " fill="#614150" transform="translate(38,46)"/>
<path d="M0 0 C-4.54970021 4.54970021 -14.88707963 3.29367679 -21.0625 3.53515625 C-22.09439453 3.57813339 -23.12628906 3.62111053 -24.18945312 3.66539001 C-27.45951618 3.80087317 -30.72974434 3.93175719 -34 4.0625 C-36.22787711 4.15399226 -38.45574187 4.24578601 -40.68359375 4.33789062 C-46.1222577 4.56208207 -51.56106433 4.78250588 -57 5 C-56.67 5.66 -56.34 6.32 -56 7 C-55.48739142 11.46437007 -55.23918508 15.95448204 -54.9375 20.4375 C-54.84807129 21.74162842 -54.75864258 23.04575684 -54.66650391 24.3894043 C-54.00522729 34.61022166 -53.77052645 44.76292992 -54 55 C-49.31113215 57.34920874 -44.8225651 57.43045925 -39.6875 57.625 C-38.85154297 57.66367188 -38.01558594 57.70234375 -37.15429688 57.7421875 C-35.10320741 57.83595159 -33.05163485 57.91904245 -31 58 C-31 58.33 -31 58.66 -31 59 C-34.72828885 59.22666276 -38.45753041 59.42809699 -42.1875 59.625 C-43.77014648 59.72167969 -43.77014648 59.72167969 -45.38476562 59.8203125 C-46.40634766 59.871875 -47.42792969 59.9234375 -48.48046875 59.9765625 C-49.41785889 60.02893066 -50.35524902 60.08129883 -51.32104492 60.13525391 C-55.40353411 59.92913899 -58.11026824 58.88973176 -61 56 C-61.24050903 53.70944214 -61.24050903 53.70944214 -61.22705078 50.81591797 C-61.22689972 49.73494843 -61.22674866 48.65397888 -61.22659302 47.54025269 C-61.21627045 46.36939117 -61.20594788 45.19852966 -61.1953125 43.9921875 C-61.1924826 42.79643097 -61.18965271 41.60067444 -61.18673706 40.36868286 C-61.17551305 36.53735481 -61.15040431 32.70625778 -61.125 28.875 C-61.11497308 26.28255545 -61.10584673 23.69010725 -61.09765625 21.09765625 C-61.07556646 14.73169158 -61.04206706 8.36586229 -61 2 C-58.13698232 0.56849116 -55.54222948 0.97678154 -52.38671875 1.0625 C-50.03272899 1.07758333 -50.03272899 1.07758333 -47.91723633 0.53393555 C-43.93616453 -0.19471154 -39.97491397 -0.38815772 -35.9375 -0.60546875 C-35.06859131 -0.65318924 -34.19968262 -0.70090973 -33.30444336 -0.75007629 C-31.47227987 -0.84874945 -29.63999976 -0.94527747 -27.80761719 -1.03979492 C-25.00906131 -1.1870233 -22.21170961 -1.35018898 -19.4140625 -1.51367188 C-17.63026013 -1.60775804 -15.84640707 -1.70088912 -14.0625 -1.79296875 C-12.81231079 -1.86936836 -12.81231079 -1.86936836 -11.53686523 -1.9473114 C-7.17647812 -2.15281732 -3.97775387 -2.08380061 0 0 Z " fill="#624E61" transform="translate(154,75)"/>
<path d="M0 0 C2.31 0 4.62 0 7 0 C7 0.33 7 0.66 7 1 C5.02 1 3.04 1 1 1 C1.33 2.65 1.66 4.3 2 6 C2.99 6 3.98 6 5 6 C8.37705448 14.40792344 8.21535531 22.2001261 7.75 31.125 C7.69014628 32.50848754 7.63164017 33.89203403 7.57446289 35.27563477 C7.40724206 39.18510359 7.20814235 43.0924812 7 47 C6.94763184 47.98822754 6.89526367 48.97645508 6.84130859 49.99462891 C6.60297431 54.33460612 6.31291485 58.66389417 6 63 C11.28 63.33 16.56 63.66 22 64 C22 64.33 22 64.66 22 65 C18.93601549 65.13530844 15.87802874 65.2342407 12.8125 65.3125 C11.94818359 65.35439453 11.08386719 65.39628906 10.19335938 65.43945312 C9.35224609 65.45556641 8.51113281 65.47167969 7.64453125 65.48828125 C6.48981323 65.52755737 6.48981323 65.52755737 5.31176758 65.56762695 C1.43513099 64.61576508 0.25276668 63.32399684 -2 60 C-2.64777513 55.620799 -2.46369937 51.30898908 -2.3046875 46.89453125 C-2.27778839 45.61897873 -2.25088928 44.34342621 -2.22317505 43.02922058 C-2.14654972 39.64731611 -2.04743281 36.2675565 -1.93804932 32.88665771 C-1.85401245 30.1220643 -1.79261666 27.35718344 -1.73234367 24.59198475 C-1.60707947 18.88472736 -1.46449474 13.17772227 -1.28466797 7.47192383 C-1.25404266 6.46108231 -1.22341736 5.45024078 -1.19186401 4.4087677 C-1 2 -1 2 0 0 Z " fill="#5A063A" transform="translate(93,9)"/>
<path d="M0 0 C0.99 0.33 1.98 0.66 3 1 C5.36397437 6.66342523 5.19110435 12.98021304 5 19 C1.61729109 19.74717559 -1.59445676 20.15806814 -5.0546875 20.28125 C-5.99957031 20.31863281 -6.94445312 20.35601562 -7.91796875 20.39453125 C-8.89378906 20.42933594 -9.86960938 20.46414062 -10.875 20.5 C-18.20469832 20.72796134 -18.20469832 20.72796134 -25.48046875 21.55859375 C-30.50241955 22.18842776 -35.39527409 21.84790901 -40.4375 21.5625 C-41.45521484 21.51029297 -42.47292969 21.45808594 -43.52148438 21.40429688 C-46.01470369 21.27553907 -48.50742633 21.1406198 -51 21 C-50 18 -50 18 -47 16 C-40.92980131 15.54492793 -34.7114405 15.63573992 -28.6875 16.5625 C-23.25781781 17.20669958 -18.18802559 16.72934186 -13 15 C-13 14.34 -13 13.68 -13 13 C-9.37 12.67 -5.74 12.34 -2 12 C-2.04125 10.7625 -2.0825 9.525 -2.125 8.25 C-2.13658291 4.98362038 -1.8568702 2.7853053 0 0 Z " fill="#9B326A" transform="translate(152,52)"/>
<path d="M0 0 C0.76441406 -0.01417969 1.52882812 -0.02835938 2.31640625 -0.04296875 C4.4375 0.1875 4.4375 0.1875 7.4375 2.1875 C7.4375 2.8475 7.4375 3.5075 7.4375 4.1875 C6.8798999 4.32212646 6.3222998 4.45675293 5.74780273 4.59545898 C-9.90206552 8.46813825 -22.26534074 13.63382938 -34.5625 24.1875 C-33.9025 22.2075 -33.2425 20.2275 -32.5625 18.1875 C-34.2125 18.5175 -35.8625 18.8475 -37.5625 19.1875 C-29.70360497 8.0766484 -13.62481383 0.11526915 0 0 Z " fill="#261C2C" transform="translate(82.5625,9.8125)"/>
<path d="M0 0 C1.65 0 3.3 0 5 0 C5.02497634 5.74340509 5.04298902 11.4867776 5.05493164 17.23022461 C5.05991766 19.17847241 5.06670888 21.12671655 5.07543945 23.07495117 C5.20687731 53.18968403 5.20687731 53.18968403 2 58 C1.67 55.03 1.34 52.06 1 49 C0.67 51.31 0.34 53.62 0 56 C-0.33 56 -0.66 56 -1 56 C-1.08452263 43.84635009 -0.8169359 31.71135517 -0.5 19.5625 C-0.4516502 17.65560333 -0.40347202 15.7487023 -0.35546875 13.84179688 C-0.23895256 9.22781206 -0.12013181 4.61389203 0 0 Z " fill="#3E1E3D" transform="translate(86,15)"/>
<path d="M0 0 C15.87240913 -0.93519923 28.6335613 3.47961969 40.625 13.875 C41.75724408 14.90878807 42.88517258 15.94745344 44 17 C43.67 17.66 43.34 18.32 43 19 C40.38323161 18.02805745 38.01721111 17.01041725 35.625 15.5625 C32.50786297 13.70706129 29.35304984 12.38066758 26 11 C26 10.34 26 9.68 26 9 C24.80761719 9.01160156 23.61523438 9.02320313 22.38671875 9.03515625 C20.82031406 9.04453592 19.25390769 9.05363593 17.6875 9.0625 C16.50897461 9.07506836 16.50897461 9.07506836 15.30664062 9.08789062 C14.54931641 9.09111328 13.79199219 9.09433594 13.01171875 9.09765625 C11.96697388 9.10551147 11.96697388 9.10551147 10.90112305 9.11352539 C9 9 9 9 6 8 C5.67 7.34 5.34 6.68 5 6 C2.97536745 5.34786708 2.97536745 5.34786708 1 5 C0.67 3.35 0.34 1.7 0 0 Z " fill="#BC287A" transform="translate(94,10)"/>
<path d="M0 0 C-0.18175781 0.52207031 -0.36351562 1.04414062 -0.55078125 1.58203125 C-1.39257702 4.04698195 -2.19978258 6.52122454 -3 9 C-3.26731934 9.82709473 -3.53463867 10.65418945 -3.81005859 11.50634766 C-5.84447196 18.31119792 -6.43137211 24.48247721 -6.3125 31.5625 C-6.31572266 32.52607422 -6.31894531 33.48964844 -6.32226562 34.48242188 C-6.2749333 40.86367971 -5.48208933 46.79592488 -4 53 C-4.99 53 -5.98 53 -7 53 C-12.42419502 37.63565225 -14.18608863 22.83571096 -9 7 C-7.45703125 5.2890625 -7.45703125 5.2890625 -6 4 C-5.67 3.01 -5.34 2.02 -5 1 C-2 0 -2 0 0 0 Z " fill="#9F9195" transform="translate(38,46)"/>
<path d="M0 0 C-4.28547283 4.28547283 -13.62318987 3.26293737 -19.50390625 3.53515625 C-20.82708107 3.59962196 -20.82708107 3.59962196 -22.17698669 3.66539001 C-24.02994947 3.75502223 -25.88298405 3.84318117 -27.73608398 3.92993164 C-30.55796675 4.06228738 -33.37956852 4.19971869 -36.20117188 4.33789062 C-38.01040231 4.42477862 -39.81964668 4.51137696 -41.62890625 4.59765625 C-42.46450577 4.63826675 -43.30010529 4.67887726 -44.161026 4.72071838 C-48.78024721 4.93475365 -53.3758305 5.03990026 -58 5 C-58 4.34 -58 3.68 -58 3 C-58.66 3 -59.32 3 -60 3 C-60 5.64 -60 8.28 -60 11 C-60.33 11 -60.66 11 -61 11 C-61 8.03 -61 5.06 -61 2 C-58.13698232 0.56849116 -55.54222948 0.97678154 -52.38671875 1.0625 C-50.03272899 1.07758333 -50.03272899 1.07758333 -47.91723633 0.53393555 C-43.93616453 -0.19471154 -39.97491397 -0.38815772 -35.9375 -0.60546875 C-35.06859131 -0.65318924 -34.19968262 -0.70090973 -33.30444336 -0.75007629 C-31.47227987 -0.84874945 -29.63999976 -0.94527747 -27.80761719 -1.03979492 C-25.00906131 -1.1870233 -22.21170961 -1.35018898 -19.4140625 -1.51367188 C-17.63026013 -1.60775804 -15.84640707 -1.70088912 -14.0625 -1.79296875 C-12.81231079 -1.86936836 -12.81231079 -1.86936836 -11.53686523 -1.9473114 C-7.17647812 -2.15281732 -3.97775387 -2.08380061 0 0 Z " fill="#492733" transform="translate(154,75)"/>
<path d="M0 0 C0.33 0 0.66 0 1 0 C2.1555538 10.33807949 2.09776087 20.61562308 2 31 C6.68886785 33.34920874 11.1774349 33.43045925 16.3125 33.625 C17.14845703 33.66367188 17.98441406 33.70234375 18.84570312 33.7421875 C20.89679259 33.83595159 22.94836515 33.91904245 25 34 C25 34.33 25 34.66 25 35 C21.27171115 35.22666276 17.54246959 35.42809699 13.8125 35.625 C12.22985352 35.72167969 12.22985352 35.72167969 10.61523438 35.8203125 C9.59365234 35.871875 8.57207031 35.9234375 7.51953125 35.9765625 C6.58214111 36.02893066 5.64475098 36.08129883 4.67895508 36.13525391 C0.59646589 35.92913899 -2.11026824 34.88973176 -5 32 C-5.23046875 30.125 -5.23046875 30.125 -5.1875 28 C-5.18105469 27.29875 -5.17460938 26.5975 -5.16796875 25.875 C-5 24 -5 24 -4 22 C-4.00864083 19.72314088 -4.13048722 17.46453697 -4.2578125 15.19140625 C-4 13 -4 13 -2.53515625 11.5390625 C-0.40551968 9.40400701 -0.50481955 7.77422104 -0.3125 4.8125 C-0.24675781 3.91144531 -0.18101563 3.01039062 -0.11328125 2.08203125 C-0.07589844 1.39496094 -0.03851563 0.70789063 0 0 Z " fill="#5D4D55" transform="translate(98,99)"/>
<path d="M0 0 C0.99 0.33 1.98 0.66 3 1 C5.36397437 6.66342523 5.19110435 12.98021304 5 19 C2.58303128 19.05411124 0.16728213 19.09372278 -2.25 19.125 C-2.93191406 19.14175781 -3.61382812 19.15851563 -4.31640625 19.17578125 C-8.0608235 19.21213482 -10.82352727 19.07944349 -14 17 C-12.68 17 -11.36 17 -10 17 C-10 16.34 -10 15.68 -10 15 C-9.4225 14.87625 -8.845 14.7525 -8.25 14.625 C-5.97664233 13.99351176 -4.0746471 13.11141809 -2 12 C-2.04125 10.7625 -2.0825 9.525 -2.125 8.25 C-2.13658291 4.98362038 -1.8568702 2.7853053 0 0 Z " fill="#C5307B" transform="translate(152,52)"/>
<path d="M0 0 C0.33 0 0.66 0 1 0 C1.1546875 1.175625 1.1546875 1.175625 1.3125 2.375 C1.77595022 5.33045181 1.77595022 5.33045181 5 7 C5.36328125 10.23046875 5.36328125 10.23046875 5.3125 14.1875 C5.30863281 15.48042969 5.30476563 16.77335937 5.30078125 18.10546875 C4.99325536 22.08732997 4.22871505 25.22573984 3 29 C2.34 29 1.68 29 1 29 C1 39.23 1 49.46 1 60 C-1 58 -1 58 -1.20254517 55.55758667 C-1.18033905 54.53166412 -1.15813293 53.50574158 -1.13525391 52.44873047 C-1.11508209 51.28767792 -1.09491028 50.12662537 -1.0741272 48.9303894 C-1.04193085 47.67203278 -1.0097345 46.41367615 -0.9765625 45.1171875 C-0.95153656 43.83264679 -0.92651062 42.54810608 -0.90072632 41.22463989 C-0.8340514 37.80821483 -0.75516452 34.39217599 -0.67376709 30.97607422 C-0.59286989 27.49071079 -0.52347564 24.00512068 -0.453125 20.51953125 C-0.31336702 13.67942075 -0.16071187 6.83964935 0 0 Z " fill="#3D0924" transform="translate(92,11)"/>
<path d="M0 0 C-0.33 1.32 -0.66 2.64 -1 4 C0.65 3.67 2.3 3.34 4 3 C2.4411666 6.82622743 0.04566418 9.25147379 -3 12 C-3.99 12.33 -4.98 12.66 -6 13 C-6 13.66 -6 14.32 -6 15 C-6.66 15 -7.32 15 -8 15 C-8 13.35 -8 11.7 -8 10 C-10.9719385 11.12451727 -13.33440687 12.22293791 -16 14 C-14.37627717 8.22676327 -9.99570805 2.91105514 -4.9609375 -0.30078125 C-3 -1 -3 -1 0 0 Z " fill="#372B3B" transform="translate(51,28)"/>
<path d="M0 0 C-0.33 1.65 -0.66 3.3 -1 5 C1.475 5.99 1.475 5.99 4 7 C4.33 9.31 4.66 11.62 5 14 C6.32 14 7.64 14 9 14 C7.6372059 17.54326465 6.65271553 19.34728447 4 22 C2.84604289 20.58994275 1.70212534 19.17166542 0.5625 17.75 C-0.07558594 16.96109375 -0.71367188 16.1721875 -1.37109375 15.359375 C-2.90505305 13.13752508 -3.57130246 11.63256518 -4 9 C-3.34 9 -2.68 9 -2 9 C-2.66 6.36 -3.32 3.72 -4 1 C-2 0 -2 0 0 0 Z " fill="#6D4D60" transform="translate(36,90)"/>
<path d="M0 0 C1.32 0.33 2.64 0.66 4 1 C4 14.53 4 28.06 4 42 C3.67 42 3.34 42 3 42 C3 36.72 3 31.44 3 26 C2.01 26 1.02 26 0 26 C0 17.42 0 8.84 0 0 Z " fill="#21141F" transform="translate(87,15)"/>
<path d="M0 0 C0.33 0 0.66 0 1 0 C1 24.75 1 49.5 1 75 C0.67 75 0.34 75 0 75 C-0.02505615 74.02466309 -0.0501123 73.04932617 -0.07592773 72.04443359 C-0.55085721 53.68759921 -1.0506947 35.33977056 -2 17 C-1.34 17 -0.68 17 0 17 C0 11.39 0 5.78 0 0 Z " fill="#433848" transform="translate(90,57)"/>
<path d="M0 0 C0.66 0.33 1.32 0.66 2 1 C2.309375 1.99 2.61875 2.98 2.9375 4 C3.288125 4.99 3.63875 5.98 4 7 C7.13349732 8.04449911 7.98968256 7.93423645 11 7 C11 8.65 11 10.3 11 12 C10.34 12 9.68 12 9 12 C9 12.66 9 13.32 9 14 C6.525 13.01 6.525 13.01 4 12 C4 11.34 4 10.68 4 10 C3.34 10 2.68 10 2 10 C1.67 9.67 1.34 9.34 1 9 C0.01 9.33 -0.98 9.66 -2 10 C-5.01822323 6.61958998 -5.01822323 6.61958998 -4.9375 3.875 C-3.71088281 1.42176561 -2.57035604 0.85678535 0 0 Z " fill="#635356" transform="translate(45,106)"/>
<path d="M0 0 C0.33 0 0.66 0 1 0 C1.66 10.23 2.32 20.46 3 31 C-2.65031797 32.88343932 -4.48554115 33.10289177 -10 32 C-8.68 31.67 -7.36 31.34 -6 31 C-6 30.34 -6 29.68 -6 29 C-7.32 28.34 -8.64 27.68 -10 27 C-7.23735711 26.40267181 -4.83967231 26 -2 26 C-2 26.99 -2 27.98 -2 29 C-1.34 29 -0.68 29 0 29 C0 19.43 0 9.86 0 0 Z " fill="#33252E" transform="translate(88,103)"/>
<path d="M0 0 C0.99 0.495 0.99 0.495 2 1 C3.01001558 5.24738543 3.0717351 9.24028135 2.9140625 13.5859375 C2.87079834 14.84003418 2.82753418 16.09413086 2.78295898 17.38623047 C2.73083252 18.70252441 2.67870605 20.01881836 2.625 21.375 C2.57531461 22.72931891 2.52591756 24.08364842 2.47680664 25.43798828 C2.13418773 34.63565218 1.68912489 43.82144297 1 53 C0.67 53 0.34 53 0 53 C0 35.51 0 18.02 0 0 Z " fill="#790245" transform="translate(98,19)"/>
<path d="M0 0 C0.33 0 0.66 0 1 0 C1 10.56 1 21.12 1 32 C-0.65 32 -2.3 32 -4 32 C-4.33 31.34 -4.66 30.68 -5 30 C-4.01 29.67 -3.02 29.34 -2 29 C-1.97494385 28.19256348 -1.9498877 27.38512695 -1.92407227 26.55322266 C-1.80834513 22.91031083 -1.68551365 19.26767274 -1.5625 15.625 C-1.52318359 14.35398437 -1.48386719 13.08296875 -1.44335938 11.7734375 C-1.40146484 10.56171875 -1.35957031 9.35 -1.31640625 8.1015625 C-1.27974854 6.98088379 -1.24309082 5.86020508 -1.20532227 4.70556641 C-1 2 -1 2 0 0 Z " fill="#B6ABA8" transform="translate(155,99)"/>
<path d="M0 0 C8.25552919 -0.34937193 15.2370239 0.05602712 23 3 C23 3.33 23 3.66 23 4 C16.58311325 4.10349817 10.37305598 3.74507544 4 3 C4 3.66 4 4.32 4 5 C3.01 5 2.02 5 1 5 C0.67 3.35 0.34 1.7 0 0 Z " fill="#9D3E73" transform="translate(94,10)"/>
<path d="M0 0 C0 0.33 0 0.66 0 1 C-1.65 1 -3.3 1 -5 1 C-4.98952637 1.83772949 -4.97905273 2.67545898 -4.96826172 3.53857422 C-4.93419981 6.64338164 -4.90911089 9.74809392 -4.89013672 12.85302734 C-4.87511893 14.8591136 -4.84971019 16.86511324 -4.82421875 18.87109375 C-4.81777344 20.12792969 -4.81132813 21.38476562 -4.8046875 22.6796875 C-4.79421387 23.84226074 -4.78374023 25.00483398 -4.77294922 26.20263672 C-5 29 -5 29 -7 31 C-6.67 21.76 -6.34 12.52 -6 3 C-10.29425875 4.07356469 -10.74740471 4.5084773 -13 8 C-13.66 7.34 -14.32 6.68 -15 6 C-15.99 5.67 -16.98 5.34 -18 5 C-16.29086802 4.26272738 -14.58106926 3.526944 -12.8671875 2.80078125 C-11.37972763 2.1628539 -9.90596706 1.49300913 -8.4375 0.8125 C-5.52633473 -0.15788842 -3.04827617 -0.14178029 0 0 Z " fill="#6B3159" transform="translate(91,14)"/>
<path d="M0 0 C0.66 0 1.32 0 2 0 C4.37590142 3.70416126 4.20500286 6.92984573 4.125 11.25 C4.10695313 12.51328125 4.08890625 13.7765625 4.0703125 15.078125 C4.04710938 16.04234375 4.02390625 17.0065625 4 18 C2.66666667 18 1.33333333 18 0 18 C0 12.06 0 6.12 0 0 Z " fill="#68496D" transform="translate(94,78)"/>
<path d="M0 0 C1.22589844 -0.00515625 2.45179687 -0.0103125 3.71484375 -0.015625 C6.79991052 0.22916443 8.48596294 0.62271344 11.0625 2.25 C8.40331834 3.13639389 6.58185359 3.42989025 3.83203125 3.56640625 C3.02958984 3.60830078 2.22714844 3.65019531 1.40039062 3.69335938 C0.56701172 3.73267578 -0.26636719 3.77199219 -1.125 3.8125 C-1.96998047 3.85568359 -2.81496094 3.89886719 -3.68554688 3.94335938 C-5.76934433 4.04931518 -7.85340103 4.1501502 -9.9375 4.25 C-9.9375 3.59 -9.9375 2.93 -9.9375 2.25 C-6.26994001 -0.19503999 -4.36271863 -0.01831152 0 0 Z " fill="#AB0D67" transform="translate(111.9375,67.75)"/>
<path d="M0 0 C0.7425 0.0825 1.485 0.165 2.25 0.25 C1.01344399 3.67430894 -0.15112619 6.65112619 -2.75 9.25 C-5.4375 9.5 -5.4375 9.5 -7.75 9.25 C-7.87375 9.889375 -7.9975 10.52875 -8.125 11.1875 C-8.33125 11.868125 -8.5375 12.54875 -8.75 13.25 C-9.74 13.745 -9.74 13.745 -10.75 14.25 C-6.40106383 0.58191489 -6.40106383 0.58191489 0 0 Z " fill="#675961" transform="translate(40.75,37.75)"/>
<path d="M0 0 C8.91 1.485 8.91 1.485 18 3 C17.67 3.99 17.34 4.98 17 6 C9.88658735 6.45164525 5.28453206 5.32797915 -1 2 C-0.67 1.34 -0.34 0.68 0 0 Z " fill="#763E5B" transform="translate(65,128)"/>
<path d="M0 0 C0.66 0 1.32 0 2 0 C2.0582462 3.72910066 2.09367917 7.45808364 2.125 11.1875 C2.15013672 12.77014648 2.15013672 12.77014648 2.17578125 14.38476562 C2.18222656 15.40634766 2.18867187 16.42792969 2.1953125 17.48046875 C2.20578613 18.41785889 2.21625977 19.35524902 2.22705078 20.32104492 C1.98166713 23.21630812 1.20521619 25.37062697 0 28 C-0.33 28 -0.66 28 -1 28 C-1.02912348 24.27084983 -1.04684037 20.5417291 -1.0625 16.8125 C-1.07087891 15.75740234 -1.07925781 14.70230469 -1.08789062 13.61523438 C-1.09111328 12.59365234 -1.09433594 11.57207031 -1.09765625 10.51953125 C-1.10289307 9.58214111 -1.10812988 8.64475098 -1.11352539 7.67895508 C-1.00082657 5.01950523 -0.59376649 2.59079427 0 0 Z " fill="#624A5A" transform="translate(32,61)"/>
<path d="M0 0 C4.86456456 4.16962677 7.63358152 9.05877914 10 15 C10 15.99 10 16.98 10 18 C9.34 18 8.68 18 8 18 C7.67 18.99 7.34 19.98 7 21 C6.82984375 20.20335938 6.6596875 19.40671875 6.484375 18.5859375 C5.0912804 12.49485365 3.71672394 7.99835288 0 3 C0 2.01 0 1.02 0 0 Z " fill="#7D2154" transform="translate(144,34)"/>
<path d="M0 0 C0.66 0.33 1.32 0.66 2 1 C2 8.92 2 16.84 2 25 C1.67 25 1.34 25 1 25 C1 19.72 1 14.44 1 9 C0.01 9 -0.98 9 -2 9 C-2 6.36 -2 3.72 -2 1 C-1.34 0.67 -0.68 0.34 0 0 Z " fill="#2B1D2F" transform="translate(89,32)"/>
<path d="M0 0 C-6.76485645 1.6120509 -13.04958914 2.26618595 -20 2 C-20 1.34 -20 0.68 -20 0 C-17.10216367 -1.44891816 -14.34559973 -1.42971811 -11.125 -1.6875 C-9.89007813 -1.79449219 -8.65515625 -1.90148437 -7.3828125 -2.01171875 C-4.14865862 -2.00051498 -2.65552905 -1.74143991 0 0 Z " fill="#965E6B" transform="translate(154,76)"/>
<path d="M0 0 C0.66 0 1.32 0 2 0 C2.05802698 3.43742918 2.09360486 6.87473253 2.125 10.3125 C2.14175781 11.28896484 2.15851563 12.26542969 2.17578125 13.27148438 C2.18222656 14.20927734 2.18867187 15.14707031 2.1953125 16.11328125 C2.20578613 16.97735596 2.21625977 17.84143066 2.22705078 18.73168945 C2 21 2 21 0 24 C-0.6976874 15.85315786 -1.28162626 8.11696631 0 0 Z " fill="#3B2450" transform="translate(88,49)"/>
<path d="M0 0 C13.6332574 -0.3690205 13.6332574 -0.3690205 20 2 C20 2.66 20 3.32 20 4 C13.4 3.34 6.8 2.68 0 2 C0 1.34 0 0.68 0 0 Z " fill="#DD60A8" transform="translate(98,13)"/>
<path d="M0 0 C0 0.66 0 1.32 0 2 C0.66 2.33 1.32 2.66 2 3 C2 3.99 2 4.98 2 6 C1.01 6 0.02 6 -1 6 C-4.43156089 6.51473413 -6.04076956 7.0271797 -9 9 C-7.87548273 6.0280615 -6.77706209 3.66559313 -5 1 C-2 0 -2 0 0 0 Z " fill="#453845" transform="translate(44,33)"/>
<path d="M0 0 C1.32 0 2.64 0 4 0 C2.4411666 3.82622743 0.04566418 6.25147379 -3 9 C-3.99 9.33 -4.98 9.66 -6 10 C-6 10.66 -6 11.32 -6 12 C-6.66 12 -7.32 12 -8 12 C-7.625 10.0625 -7.625 10.0625 -7 8 C-6.34 7.67 -5.68 7.34 -5 7 C-3.98133771 5.34467377 -2.98189187 3.67739862 -2 2 C-1.34 1.34 -0.68 0.68 0 0 Z " fill="#462743" transform="translate(51,31)"/>
<path d="M0 0 C1.9375 0.8125 1.9375 0.8125 4 2 C4.33 2.99 4.66 3.98 5 5 C5.66 5.33 6.32 5.66 7 6 C6 8 6 8 4.25 8.875 C2 9 2 9 -0.75 7.1875 C-1.4925 6.465625 -2.235 5.74375 -3 5 C-3 4.34 -3 3.68 -3 3 C-2.01 3 -1.02 3 0 3 C0 2.01 0 1.02 0 0 Z " fill="#5A3B4C" transform="translate(60,121)"/>
<path d="M0 0 C1.134375 0.020625 2.26875 0.04125 3.4375 0.0625 C3.4375 1.0525 3.4375 2.0425 3.4375 3.0625 C4.4275 3.3925 5.4175 3.7225 6.4375 4.0625 C4.875 5.625 4.875 5.625 2.4375 7.0625 C-1.3125 6.75 -1.3125 6.75 -4.5625 6.0625 C-3.2425 5.7325 -1.9225 5.4025 -0.5625 5.0625 C-0.5625 4.4025 -0.5625 3.7425 -0.5625 3.0625 C-1.8825 2.4025 -3.2025 1.7425 -4.5625 1.0625 C-3.5625 0.0625 -3.5625 0.0625 0 0 Z " fill="#402136" transform="translate(82.5625,128.9375)"/>
<path d="M0 0 C-0.66 0 -1.32 0 -2 0 C-2 0.66 -2 1.32 -2 2 C-10.415 2.495 -10.415 2.495 -19 3 C-18.01 2.67 -17.02 2.34 -16 2 C-16 1.34 -16 0.68 -16 0 C-14.08416353 -0.1958009 -12.16727461 -0.38132214 -10.25 -0.5625 C-8.64898437 -0.71912109 -8.64898437 -0.71912109 -7.015625 -0.87890625 C-4.35858796 -0.98560074 -2.50039428 -0.81930395 0 0 Z " fill="#8D4D5F" transform="translate(136,76)"/>
<path d="M0 0 C1.98 0 3.96 0 6 0 C6 0.66 6 1.32 6 2 C7.051875 2.1546875 7.051875 2.1546875 8.125 2.3125 C11.39137647 3.09359003 14.0471852 4.42058743 17 6 C17 6.99 17 7.98 17 9 C14.525 8.01 14.525 8.01 12 7 C12 6.34 12 5.68 12 5 C9.36 5 6.72 5 4 5 C3.67 4.01 3.34 3.02 3 2 C2.01 1.34 1.02 0.68 0 0 Z " fill="#AD0762" transform="translate(114,19)"/>
<path d="M0 0 C0.33 0 0.66 0 1 0 C1.06058594 0.60328125 1.12117188 1.2065625 1.18359375 1.828125 C1.26738281 2.62734375 1.35117188 3.4265625 1.4375 4.25 C1.55931641 5.43335937 1.55931641 5.43335937 1.68359375 6.640625 C1.97634993 8.82364639 2.42064419 10.8773182 3 13 C2.34 13 1.68 13 1 13 C1 15.31 1 17.62 1 20 C0.67 20 0.34 20 0 20 C-0.87545133 16.23416966 -1.1346822 12.73819781 -1.125 8.875 C-1.12757812 7.84117188 -1.13015625 6.80734375 -1.1328125 5.7421875 C-1 3 -1 3 0 0 Z " fill="#452E54" transform="translate(87,61)"/>
<path d="M0 0 C2 2 2 2 2.1953125 4.1640625 C2.17210937 4.97617188 2.14890625 5.78828125 2.125 6.625 C2.10695312 7.44226563 2.08890625 8.25953125 2.0703125 9.1015625 C2.03550781 10.04128906 2.03550781 10.04128906 2 11 C0.02 11 -1.96 11 -4 11 C-3.71125 10.29875 -3.4225 9.5975 -3.125 8.875 C-1.97866412 5.94547497 -0.97374346 2.99078347 0 0 Z " fill="#BD6C97" transform="translate(155,60)"/>
<path d="M0 0 C0.99 0.33 1.98 0.66 3 1 C4.38302497 7.03501806 3.61955162 10.37281504 1 16 C0.34 16.33 -0.32 16.66 -1 17 C-0.83628906 16.47921875 -0.67257813 15.9584375 -0.50390625 15.421875 C0.14058659 12.3243125 0.09411589 9.41158906 0.0625 6.25 C0.05347656 5.07953125 0.04445312 3.9090625 0.03515625 2.703125 C0.02355469 1.81109375 0.01195312 0.9190625 0 0 Z " fill="#B0457D" transform="translate(152,52)"/>
<path d="M0 0 C3.78786597 0.5260925 6.17152224 1.38103911 9 4 C9 4.66 9 5.32 9 6 C4.31261335 5.09276387 -0.34193744 4.0452733 -5 3 C-2 2 -2 2 1 3 C0.67 2.01 0.34 1.02 0 0 Z " fill="#AA497E" transform="translate(117,14)"/>
<path d="M0 0 C-0.5625 3.375 -0.5625 3.375 -2 7 C-5.625 8.4375 -5.625 8.4375 -9 9 C-8.33333333 7.66666667 -7.66666667 6.33333333 -7 5 C-6.5359375 3.9171875 -6.5359375 3.9171875 -6.0625 2.8125 C-4.55727378 0.24476116 -2.8823948 0 0 0 Z " fill="#85767D" transform="translate(38,46)"/>
<path d="M0 0 C0.99 0 1.98 0 3 0 C3.25394531 0.54269531 3.50789063 1.08539063 3.76953125 1.64453125 C4.11371094 2.35996094 4.45789062 3.07539062 4.8125 3.8125 C5.14894531 4.52019531 5.48539063 5.22789063 5.83203125 5.95703125 C7.00645471 8.01129035 8.25628016 9.41616278 10 11 C9.34 11.66 8.68 12.32 8 13 C6.84604289 11.58994275 5.70212534 10.17166542 4.5625 8.75 C3.92441406 7.96109375 3.28632812 7.1721875 2.62890625 6.359375 C1.09494695 4.13752508 0.42869754 2.63256518 0 0 Z " fill="#7E6677" transform="translate(32,99)"/>
<path d="M0 0 C0 4.95 0 9.9 0 15 C-0.33 15 -0.66 15 -1 15 C-1 10.71 -1 6.42 -1 2 C-4.96 1.67 -8.92 1.34 -13 1 C-13 0.67 -13 0.34 -13 0 C-11.20909747 -0.19466332 -9.41723495 -0.38051213 -7.625 -0.5625 C-6.12839844 -0.71912109 -6.12839844 -0.71912109 -4.6015625 -0.87890625 C-2 -1 -2 -1 0 0 Z " fill="#B29B9F" transform="translate(155,78)"/>
<path d="M0 0 C0.66 0 1.32 0 2 0 C2.33 1.32 2.66 2.64 3 4 C3.66 4 4.32 4 5 4 C5.33 6.31 5.66 8.62 6 11 C5.01 11 4.02 11 3 11 C2.49384702 9.73160474 1.99530901 8.46016898 1.5 7.1875 C1.2215625 6.47980469 0.943125 5.77210937 0.65625 5.04296875 C0 3 0 3 0 0 Z " fill="#918188" transform="translate(28,88)"/>
<path d="M0 0 C0 0.66 0 1.32 0 2 C-3.14930893 3.04976964 -5.38814456 3.10131595 -8.6875 3.0625 C-9.68136719 3.05347656 -10.67523438 3.04445313 -11.69921875 3.03515625 C-12.83810547 3.01775391 -12.83810547 3.01775391 -14 3 C-13.67 2.34 -13.34 1.68 -13 1 C-8.71230214 -0.29930238 -4.43489655 -0.07516774 0 0 Z " fill="#7A4151" transform="translate(120,76)"/>
<path d="M0 0 C4.29 0.33 8.58 0.66 13 1 C13 1.66 13 2.32 13 3 C11.56359829 3.19573608 10.12580496 3.38127816 8.6875 3.5625 C7.88699219 3.66691406 7.08648437 3.77132813 6.26171875 3.87890625 C4 4 4 4 1 3 C0.67 2.01 0.34 1.02 0 0 Z " fill="#B3166F" transform="translate(99,15)"/>
<path d="M0 0 C0.33 0 0.66 0 1 0 C1.66 6.27 2.32 12.54 3 19 C2.34 17.68 1.68 16.36 1 15 C0.34 15 -0.32 15 -1 15 C-0.67 10.05 -0.34 5.1 0 0 Z " fill="#BBA7AF" transform="translate(29,73)"/>
<path d="M0 0 C-0.33 1.65 -0.66 3.3 -1 5 C-2.98 5.66 -4.96 6.32 -7 7 C-6.6875 4.625 -6.6875 4.625 -6 2 C-3 0 -3 0 0 0 Z " fill="#96898D" transform="translate(35,53)"/>
<path d="M0 0 C0.7425 0.0825 1.485 0.165 2.25 0.25 C1.59 1.9 0.93 3.55 0.25 5.25 C-2.06 5.58 -4.37 5.91 -6.75 6.25 C-6.75 4.25 -6.75 4.25 -5.0625 2.125 C-2.75 0.25 -2.75 0.25 0 0 Z " fill="#5E4F5B" transform="translate(40.75,37.75)"/>
<path d="M0 0 C2.64 0 5.28 0 8 0 C6.515 1.485 6.515 1.485 5 3 C4.34 2.67 3.68 2.34 3 2 C3 2.66 3 3.32 3 4 C1.02 4 -0.96 4 -3 4 C-2.67 3.34 -2.34 2.68 -2 2 C-1.34 2 -0.68 2 0 2 C0 1.34 0 0.68 0 0 Z " fill="#BD2171" transform="translate(139,65)"/>
<path d="M0 0 C0.99 0 1.98 0 3 0 C3 2.64 3 5.28 3 8 C2.01 8 1.02 8 0 8 C0 5.36 0 2.72 0 0 Z " fill="#341E40" transform="translate(87,41)"/>
<path d="M0 0 C-0.598125 0.2475 -1.19625 0.495 -1.8125 0.75 C-4.28647521 2.16370012 -5.43370255 3.65055383 -7 6 C-7.66 5.34 -8.32 4.68 -9 4 C-9.99 3.67 -10.98 3.34 -12 3 C-4.71428571 -0.42857143 -4.71428571 -0.42857143 0 0 Z " fill="#7E3161" transform="translate(85,16)"/>
<path d="M0 0 C0.66 0.33 1.32 0.66 2 1 C1.34 2.65 0.68 4.3 0 6 C-4 6 -4 6 -7 4 C-1.7265625 0.77734375 -1.7265625 0.77734375 0 0 Z " fill="#58264D" transform="translate(64,22)"/>
<path d="M0 0 C0.99 0 1.98 0 3 0 C3.33 1.65 3.66 3.3 4 5 C3.01 5.66 2.02 6.32 1 7 C-1 4 -1 4 -0.625 1.8125 C-0.41875 1.214375 -0.2125 0.61625 0 0 Z " fill="#604658" transform="translate(41,108)"/>
<path d="M0 0 C-3.08888522 2.05925681 -3.70935927 2.2390374 -7.1875 2.125 C-9.0746875 2.063125 -9.0746875 2.063125 -11 2 C-8.74490247 -2.51019507 -4.15738698 -0.70597137 0 0 Z " fill="#B3166D" transform="translate(123,69)"/>
<path d="M0 0 C3.465 1.98 3.465 1.98 7 4 C7 4.33 7 4.66 7 5 C0.25 4.25 0.25 4.25 -2 2 C-1.34 2 -0.68 2 0 2 C0 1.34 0 0.68 0 0 Z " fill="#993A6E" transform="translate(126,18)"/>
<path d="M0 0 C1.2065625 0.0309375 1.2065625 0.0309375 2.4375 0.0625 C2.1075 1.0525 1.7775 2.0425 1.4375 3.0625 C-1.5325 3.0625 -4.5025 3.0625 -7.5625 3.0625 C-6.2425 2.4025 -4.9225 1.7425 -3.5625 1.0625 C-2.5625 0.0625 -2.5625 0.0625 0 0 Z " fill="#602D4A" transform="translate(80.5625,130.9375)"/>
<path d="M0 0 C0.66 0 1.32 0 2 0 C2.33 1.65 2.66 3.3 3 5 C2.34 5 1.68 5 1 5 C0.67 5.99 0.34 6.98 0 8 C-1.125 2.25 -1.125 2.25 0 0 Z " fill="#8C245C" transform="translate(151,47)"/>
<path d="M0 0 C2.0625 0.4375 2.0625 0.4375 4 1 C3.34 1 2.68 1 2 1 C2 1.66 2 2.32 2 3 C-1.63 3 -5.26 3 -9 3 C-9 2.67 -9 2.34 -9 2 C-6.94921875 1.77213542 -4.8984375 1.54427083 -2.84765625 1.31640625 C-0.98859771 1.18113386 -0.98859771 1.18113386 0 0 Z " fill="#844252" transform="translate(132,75)"/>
<path d="M0 0 C0.33 0 0.66 0 1 0 C1.66 2.97 2.32 5.94 3 9 C1.35 9.33 -0.3 9.66 -2 10 C-1.34 9.01 -0.68 8.02 0 7 C0.07905064 4.66800612 0.08798769 2.33167378 0 0 Z " fill="#2C1E26" transform="translate(88,125)"/>
<path d="M0 0 C0.33 1.32 0.66 2.64 1 4 C2.32 4 3.64 4 5 4 C4.67 4.99 4.34 5.98 4 7 C2.35 6.67 0.7 6.34 -1 6 C-0.67 4.02 -0.34 2.04 0 0 Z " fill="#665755" transform="translate(40,100)"/>
<path d="M0 0 C0.33 0.66 0.66 1.32 1 2 C0.01 3.485 0.01 3.485 -1 5 C-1.66 5 -2.32 5 -3 5 C-3 5.66 -3 6.32 -3 7 C-3.66 7 -4.32 7 -5 7 C-4.60196439 4.11424181 -4.20990931 3.17810487 -1.9375 1.25 C-1.298125 0.8375 -0.65875 0.425 0 0 Z " fill="#3C1F38" transform="translate(48,36)"/>
<path d="M0 0 C1.65 1.32 3.3 2.64 5 4 C4.67 4.66 4.34 5.32 4 6 C1.525 5.01 1.525 5.01 -1 4 C-0.67 2.68 -0.34 1.36 0 0 Z " fill="#9A2E6C" transform="translate(133,23)"/>
</svg>
